<svg width="67" height="85" fill="none" xmlns="http://www.w3.org/2000/svg"><path d="M33.693 13.778a45.363 45.363 0 008.29 7.623l.162.114a1.306 1.306 0 001.515-2.126l-.161-.115a42.75 42.75 0 01-8.355-7.836l-.082-.1a1.747 1.747 0 00-2.688-.026 45.172 45.172 0 01-8.843 8.01l-.081.056a1.305 1.305 0 101.482 2.15l.081-.057a47.79 47.79 0 008.68-7.693zM44.37 44.823a53.569 53.569 0 01-10.627-7.393 57.024 57.024 0 01-11.102 7.444l-.466.239a1.305 1.305 0 11-1.19-2.324l.466-.24a54.415 54.415 0 0011.092-7.535 1.835 1.835 0 012.447.024l.081.073a50.961 50.961 0 0010.52 7.404l.533.282a1.305 1.305 0 01-1.221 2.308l-.533-.282zM46.23 66.1a66.112 66.112 0 01-12.659-6.656 71.13 71.13 0 01-13.217 6.698l-.92.35a1.306 1.306 0 01-.93-2.438l.919-.351A68.515 68.515 0 0032.5 57.026a1.969 1.969 0 012.186.02l.08.053a63.501 63.501 0 0012.422 6.573l.98.387a1.305 1.305 0 11-.958 2.428l-.98-.386zM27.694 33.109a47.418 47.418 0 01-7.419-7.877 19.583 19.583 0 01-6.307 3.818 1.302 1.302 0 01-1.677-.767 1.31 1.31 0 01.777-1.677 16.95 16.95 0 005.598-3.43l.74-.682a1.529 1.529 0 012.277.224l.236.328a44.823 44.823 0 007.47 8.069l.615.52a1.3 1.3 0 01.148 1.836 1.312 1.312 0 01-1.843.157l-.615-.52zm19.689-8.004a47.41 47.41 0 01-7.419 7.876l-.615.52a1.311 1.311 0 01-1.843-.157 1.3 1.3 0 01.148-1.837l.615-.52a44.82 44.82 0 007.47-8.068l.237-.329a1.529 1.529 0 012.276-.224l.74.682a16.953 16.953 0 005.598 3.43 1.309 1.309 0 01.777 1.677c-.248.675-1 1.018-1.677.767a19.585 19.585 0 01-6.307-3.817z" fill="#ef6f2e"/><path fill-rule="evenodd" clip-rule="evenodd" d="M65.571 54.728a8.239 8.239 0 01-1.005 9.577l-2.428 2.732a1.306 1.306 0 011.057 2.036L59.39 74.71a12.707 12.707 0 01-10.824 5.597l-.01.008a25.361 25.361 0 01-29.443-.052 14.292 14.292 0 01-11.054-5.245l-4.648-5.637a1.305 1.305 0 01.953-2.135l.114-.019.173-.028-2.558-2.88a8.239 8.239 0 01-1.006-9.576c-1.657-2.068-.444-5.208 2.208-5.618.062-.025.126-.045.193-.061l.739-.175c.147-.035.294-.07.44-.107a21.776 21.776 0 01-2.403-5.732l-.527-2.03a9.337 9.337 0 01.435-5.973 4.839 4.839 0 014.276-2.955c.177-.933.63-1.82 1.35-2.532.321-.317.536-.725.617-1.168l1.29-7.101.583-2.304c.22-.87.6-1.697 1.11-2.43 1.325-1.906 4.078-2.209 5.747-.56.12.118.235.239.347.363l.142-.667c.078-.366.185-.726.32-1.076a25.867 25.867 0 014.527-7.562l.487-.566c.266-.31.557-.598.87-.862l2.76-2.33a1.32 1.32 0 011.84.131c.046-.115.097-.23.153-.342.475-.96 1.259-1.742 2.215-2.277A6.529 6.529 0 0133.982 0a6.53 6.53 0 013.175.81c.957.535 1.741 1.317 2.216 2.277.06.122.116.246.165.372a1.322 1.322 0 011.68.022l2.76 2.33c.313.265.604.553.87.862l.487.566a25.868 25.868 0 014.527 7.563c.135.35.242.71.32 1.075l.142.667c.112-.124.228-.245.347-.363 1.669-1.648 4.421-1.346 5.747.56.51.733.89 1.561 1.11 2.43l.583 2.304 1.29 7.102c.08.442.296.85.616 1.167a4.82 4.82 0 011.351 2.532 4.839 4.839 0 014.276 2.956c.797 1.89.95 3.988.435 5.973l-.527 2.03a21.776 21.776 0 01-2.458 5.822l.034.008c.032.007.064.016.096.026 2.749.32 4.033 3.533 2.347 5.637zM32.081 3.09a3.92 3.92 0 011.9-.478 3.92 3.92 0 011.902.478c.547.306.933.718 1.15 1.156.214.432.264.89.16 1.328-.105.443-.373.887-.818 1.259a1.305 1.305 0 001.676 2.002c.833-.698 1.435-1.616 1.682-2.657.037-.156.066-.313.086-.47l2.463 2.08c.206.173.397.362.573.566l.486.566a23.26 23.26 0 014.071 6.8c.086.222.154.45.203.684l.75 3.517a1.318 1.318 0 00.53.8 1.308 1.308 0 001.867-.37l1.056-1.492c.208-.292.44-.567.696-.819.492-.487 1.343-.415 1.76.183.332.478.58 1.018.72 1.577l.562 2.218 1.274 7.015a4.813 4.813 0 001.353 2.562c.781.772.876 1.998.223 2.875l-1.134 1.521-2.084 2.677-1.225 1.413-.84.879a1.303 1.303 0 00.047 1.844 1.31 1.31 0 001.848-.04l.883-.924 1.31-1.511 2.143-2.753 1.15-1.542c.268-.36.479-.746.633-1.148a2.225 2.225 0 012.102 1.36 6.726 6.726 0 01.313 4.303l-.527 2.03a19.167 19.167 0 01-2.598 5.807 54.465 54.465 0 01-10.362-4.047l-.09-.046a1.87 1.87 0 00-2.294.464 57.634 57.634 0 01-9.898 9.393l-.548.408a1.3 1.3 0 00-.26 1.825 1.31 1.31 0 001.83.268l.548-.409a60.226 60.226 0 009.963-9.362 57.083 57.083 0 0012.48 4.548l.738.175c.095.023.19.034.283.036v.026c.813.032 1.184 1.018.59 1.574l-8.195 7.673a1.29 1.29 0 00-.056 1.836c.497.52 1.327.541 1.855.047l6.585-6.165a5.638 5.638 0 01-.984 5.954l-3.462 3.895a44.145 44.145 0 01-6.43-2.013 1.549 1.549 0 00-1.59.267l-.304.264A93.322 93.322 0 0136.13 75.45l-1.293.743.142.245a35.914 35.914 0 00-3.466.022l.036-.062-1.293-.743A93.315 93.315 0 0115.56 65.201l-.304-.263a1.549 1.549 0 00-1.59-.267A44.177 44.177 0 017.6 66.598l-3.553-4a5.638 5.638 0 01-.985-5.953l6.586 6.165a1.321 1.321 0 001.854-.047 1.29 1.29 0 00-.055-1.836L3.25 53.254c-.594-.556-.223-1.541.591-1.574l-.002-.044c.08-.003.16-.015.241-.034l.74-.175a57.083 57.083 0 0012.48-4.548 60.226 60.226 0 009.962 9.362l.548.409a1.31 1.31 0 001.83-.268 1.3 1.3 0 00-.26-1.825l-.548-.408a57.63 57.63 0 01-9.898-9.393 1.87 1.87 0 00-2.293-.464l-.09.046a54.467 54.467 0 01-9.252 3.727 19.167 19.167 0 01-2.508-5.67l-.527-2.03a6.726 6.726 0 01.313-4.303 2.226 2.226 0 012.102-1.36c.154.401.365.788.633 1.147l1.15 1.543 2.142 2.752 1.311 1.512.883.924a1.31 1.31 0 001.848.04 1.303 1.303 0 00.047-1.845l-.84-.879-1.225-1.412-2.084-2.677-1.134-1.521a2.196 2.196 0 01.223-2.875 4.813 4.813 0 001.353-2.563l1.274-7.014.561-2.218c.142-.56.389-1.1.721-1.577.417-.599 1.267-.67 1.76-.183.256.252.488.526.696.819l1.056 1.491a1.308 1.308 0 002.065.2 1.3 1.3 0 00.332-.629l.75-3.518c.05-.233.117-.462.203-.684a23.258 23.258 0 014.07-6.8l.487-.565a5.03 5.03 0 01.573-.567l2.583-2.18c.016.252.054.504.114.754.247 1.04.849 1.96 1.682 2.657a1.306 1.306 0 001.676-2.002c-.445-.372-.713-.816-.818-1.259a1.944 1.944 0 01.16-1.328c.216-.438.603-.85 1.15-1.156zm20.285 64.035a46.788 46.788 0 007.523 2.18l-2.663 3.947a10.097 10.097 0 01-9.363 4.4l-8.834-.872a95.896 95.896 0 0013.337-9.655zm-8.17 12.789l-7.442-.735a33.292 33.292 0 00-6.755.02l-6.51.685a22.762 22.762 0 0020.706.03zm-24.256-2.29c.134-.009.269-.02.403-.035l6.826-.717A95.91 95.91 0 0114.02 67.33a46.785 46.785 0 01-7.178 2.11l3.233 3.92-1.007.831 1.01-.826a11.68 11.68 0 009.7 4.27l.066-.085.096.075z" fill="#ef6f2e"/></svg>