<svg width="149" height="109" fill="none" xmlns="http://www.w3.org/2000/svg"><g clip-path="url(#clip0)"><path fill-rule="evenodd" clip-rule="evenodd" d="M143.685 30.134c0-13.623-13.25-26.094-31.163-24.517C94.393 7.213 80.2 20.303 80.2 37.822h-5.484c0-20.922 16.96-35.875 37.325-37.668 20.554-1.81 37.083 12.583 37.128 29.908.357 7.264-2.57 13.906-5.4 18.579a49.873 49.873 0 01-2.635 3.914h-7.103l.011-.012a36.055 36.055 0 001.483-1.708 44.617 44.617 0 003.553-5.035c2.588-4.272 4.908-9.813 4.61-15.524l-.003-.071v-.071zm-27.152-15.051a2.742 2.742 0 00-5.459-.525l-2.247 23.375-.042.077.033.018-.005.052.12.011 16.308 9.015a2.742 2.742 0 102.653-4.8l-13.272-7.336 1.911-19.887zm-50.486 25.73h39.277a6.17 6.17 0 016.137 6.8l-4.094 39.843a8.91 8.91 0 01-8.865 8H69.147s-2.8-6.531-10.728-6.617c-5.192-.056-8.313 2.799-9.85 4.776-.82 1.055-2.035 1.842-3.37 1.842h-5.43l.005-.01H26.708a2.951 2.951 0 110-5.902h15.904l.003-.005h2.448a3.428 3.428 0 00.803-6.76l.01-.02h-28.35a2.742 2.742 0 010-5.484h33.49c.121 0 .24.008.358.023h3.417a3.428 3.428 0 00.307-6.842h-26.66a2.458 2.458 0 110-4.915h25.717l.001-.003h5.852a3.428 3.428 0 00.353-6.837H43.013a2.88 2.88 0 110-5.758H63.94c.13 0 .257.008.382.025h3.581a3.428 3.428 0 000-6.855h-4.405l.002-.005h-8.436a2.64 2.64 0 110-5.279h10.974l.009-.017zm51.189 14.851a3.427 3.427 0 00-3.405 3.041l-3.664 32.307a3.428 3.428 0 003.406 3.814h4.706c.137 0 .341-.319.658-.815h.001c1.117-1.749 3.643-5.701 9.628-5.701 7.226 0 9.387 4.585 10.084 6.063.134.284.213.453.264.453h8.007a3.427 3.427 0 003.417-3.172l1.009-13.488a5.49 5.49 0 00-.757-3.215l-10.092-16.944a4.799 4.799 0 00-4.123-2.343h-19.139zm9.122 2.406a2.743 2.743 0 00-2.73 2.486l-1.103 11.755a2.057 2.057 0 002.047 2.248h19.395c1.584 0 2.574-1.715 1.78-3.086l-6.769-11.693a3.427 3.427 0 00-2.966-1.71h-9.654zm2.276 44.945c2.864-.719 3.849-3.14 3.466-4.666-.278-1.109-1.779-2.728-5.112-1.89-2.925.734-3.695 2.87-3.325 4.34.362 1.442 2.016 2.958 4.971 2.216zm1.169 4.654c5.14-1.291 8.051-6.108 6.951-10.49-1.1-4.38-5.795-6.666-10.935-5.375-5.14 1.291-7.911 5.783-6.81 10.164 1.1 4.381 5.655 6.992 10.794 5.701zm-68.11-9.32c.383 1.525-.602 3.947-3.466 4.666-2.955.742-4.61-.774-4.972-2.216-.369-1.47.4-3.606 3.325-4.34 3.333-.838 4.834.781 5.113 1.89zm4.654-1.17c1.1 4.382-1.811 9.199-6.951 10.49-5.14 1.291-9.695-1.32-10.795-5.701-1.1-4.38 1.67-8.873 6.81-10.164 5.14-1.29 9.835.995 10.936 5.376zm-45.18-53.71a2.64 2.64 0 012.64-2.639h19.74a2.64 2.64 0 110 5.279h-19.74a2.64 2.64 0 01-2.64-2.64zM5.167 68c0-1.357 1.1-2.457 2.458-2.457H18.39a2.458 2.458 0 110 4.915H7.625A2.458 2.458 0 015.167 68zM0 55.665a2.88 2.88 0 012.88-2.88h29.524a2.88 2.88 0 010 5.76H2.88A2.88 2.88 0 010 55.663z" fill="#3d5050"/></g><defs><clipPath id="clip0"><path fill="#fff" d="M0 0h149v109H0z"/></clipPath></defs></svg>