<svg width="231" height="189" fill="none" xmlns="http://www.w3.org/2000/svg"><path fill-rule="evenodd" clip-rule="evenodd" d="M130.402 80.058a7 7 0 0012.22 6.83l42.191-75.472a7 7 0 10-12.22-6.832l-42.191 75.474zM134.703 40c10.493 0 19-8.507 19-19s-8.507-19-19-19-19 8.507-19 19 8.507 19 19 19zm0-11a8 8 0 100-16 8 8 0 000 16zm-92.146 81.783l8.501-7.085a41.13 41.13 0 006.276-6.525l1.814-2.359a30.828 30.828 0 0124.434-12.031h3.042a47.785 47.785 0 0120.779 4.753l6.677 3.224a80.218 80.218 0 0026.251 7.512l4.726.51h21.486a6.02 6.02 0 015.573 8.302l-1.044 2.551a12.701 12.701 0 01-8.999 7.589l-4.138.919c-.208.046-.416.095-.625.143h-.001l-.002.001c-1.068.247-2.145.496-3.236.496h-49.579c-1.119 0-2.732 1.217-2.232 2.717 0 1.5 1.436 1.994 2 2l17.721.75 17.722-.25 15.057-.5 4.5-.5 2.813-.5c1.41 0 5.134-1.397 8.654-3.768 1.374-.926 2.538-2.132 3.689-3.325l.05-.051.109-.114.007-.006.35-.363c2.023-2.101 2.828-4.872 2.828-7.789a274.156 274.156 0 0041.545-23.452l3.682-2.524a5.19 5.19 0 017.57 4.614v1.398a7.658 7.658 0 01-2.852 5.962l-28.148 22.701-19.354 11.892-12.766 5.605a109.366 109.366 0 01-15.898 5.563l-1.276.339a163.011 163.011 0 01-27.536 4.831l-2.652.233a64.685 64.685 0 01-9.754.121l-7.625-.481a45.091 45.091 0 00-31.14 9.897l-29-43zM198.703 70c0 10.493-8.507 19-19 19s-19-8.507-19-19 8.507-19 19-19 19 8.507 19 19zm-11 0a8 8 0 11-16 0 8 8 0 0116 0zM77.071 166.994L32.066 100 .703 121.069l45.006 66.994 31.362-21.069zM55.203 177a7.5 7.5 0 100-15 7.5 7.5 0 000 15z" fill="#3d5050"/></svg>