<svg width="45" height="35" fill="none" xmlns="http://www.w3.org/2000/svg"><g clip-path="url(#clip0)" stroke="#000"><path d="M19.206 21.322c7.796-.63 13.678.209 14.175-3.928m0 0l8.876-5.279c.336-.2.74-.252 1.116-.143l.17.05c.455.13.78.532.813 1.004v0a2.443 2.443 0 01-.824 2.01l-4.959 4.357-1.846 1.233a30.348 30.348 0 01-11.658 4.662l-1.332.231c-.829.144-1.67.21-2.51.2v0a13.09 13.09 0 00-7.481 2.222l-.896.602-5.4-8.066 2.175-2.025 1.54-1.83a5.843 5.843 0 012.57-1.764v0a8.48 8.48 0 013.296-.444l.78.05a6.78 6.78 0 011.772.352l2.081.711c1.415.483 2.885.782 4.376.89l.465.033c.316.022.633.018.948-.013l4.548-.45a1.265 1.265 0 011.38 1.407v0zm-6.759-4.306l9.841-11.911" stroke-linecap="round"/><circle cx="28.543" cy="3.159" r="2.5"/><circle cx="34.543" cy="11.006" r="2.5"/><path d="M5.907 18.227l8.492 12.64-5.213 3.502L.694 21.73z"/><circle cx="10.697" cy="31.133" r=".5"/></g><defs><clipPath id="clip0"><path fill="#fff" d="M0 0h45v35H0z"/></clipPath></defs></svg>