<svg width="150" height="108" fill="none" xmlns="http://www.w3.org/2000/svg"><path d="M137.001 48.192l-11.753-17.63h-25.152l1.639-10.546H91.004C89.897 8.846 80.449.094 68.994.094c-11.454 0-20.902 8.753-22.009 19.922h-27.21v4.394h27.21c1.106 11.169 10.554 19.922 22.01 19.922 11.454 0 20.902-8.753 22.008-19.922h5.602l-8.106 52.15H47.452c-8.05-12.508-26.228-12.479-34.26 0H0v13.183h10.081c1.1 10.198 9.756 18.164 20.241 18.164s19.142-7.966 20.241-18.164h41.843c1.1 10.198 9.756 18.164 20.24 18.164 10.485 0 19.142-7.966 20.241-18.164H150V62.35c0-7.428-5.728-13.543-12.999-14.158zm-68.007-8.255c-9.773 0-17.724-7.951-17.724-17.724S59.22 4.488 68.993 4.488c9.774 0 17.725 7.952 17.725 17.725 0 9.773-7.951 17.724-17.725 17.724zm-58.913 45.41H4.395v-4.394h6.667a20.197 20.197 0 00-.98 4.395zm20.241 18.165c-8.804 0-15.966-7.163-15.966-15.967s7.162-15.967 15.966-15.967c8.804 0 15.967 7.163 15.967 15.967s-7.163 15.967-15.967 15.967zm79.499-68.555h13.076l8.789 13.184h-24.063l2.198-13.184zm-17.415 50.39H50.563a20.19 20.19 0 00-.98-4.394h43.803a20.19 20.19 0 00-.98 4.395zm20.24 18.165c-8.804 0-15.966-7.163-15.966-15.967s7.162-15.967 15.966-15.967c8.804 0 15.967 7.163 15.967 15.967s-7.163 15.967-15.967 15.967zm32.959-18.164h-12.718a20.225 20.225 0 00-.98-4.395h13.698v4.395zm0-8.79h-15.829c-8.051-12.507-26.227-12.478-34.26 0h-2.57l6.466-41.601h5.953l-2.93 17.578h33.356c4.656 0 8.562 3.26 9.563 7.617h-7.805a6.6 6.6 0 00-6.592 6.592 6.6 6.6 0 006.592 6.592h8.056v3.223zm0-7.617h-8.056c-2.908 0-2.905-4.394 0-4.394h8.056v4.394zM4.541 31.148h4.395v4.395H4.54v-4.395z" fill="#3A3330"/><path d="M13.33 31.148h19.63v4.395H13.33v-4.395zm.293 10.694h4.395v4.394h-4.395v-4.394zm8.789 0h25.195v4.394H22.412v-4.394zM9.229 52.535h25.195v4.395H9.229v-4.395zm-8.789 0h4.394v4.395H.439v-4.395zm29.882 28.418a6.6 6.6 0 00-6.591 6.592 6.6 6.6 0 006.591 6.592 6.6 6.6 0 006.592-6.592 6.6 6.6 0 00-6.592-6.592zm-2.197 6.592c0-2.908 4.395-2.905 4.395 0 0 1.212-4.395 2.905-4.395 0zm84.521-6.592a6.6 6.6 0 00-6.591 6.592 6.6 6.6 0 006.591 6.592 6.6 6.6 0 006.592-6.592 6.6 6.6 0 00-6.592-6.592zm0 8.79c-2.908 0-2.905-4.395 0-4.395 2.908 0 2.906 4.394 0 4.394zM71.484 9.615H67.09v15.967h10.4v-4.395h-6.006V9.616z" fill="#3A3330"/></svg>