<svg width="19" height="17" fill="none" xmlns="http://www.w3.org/2000/svg"><path d="M9.5 17a.5.5 0 01-.243-.063c-.094-.052-2.326-1.301-4.592-3.347-1.341-1.21-2.411-2.448-3.183-3.68C.498 8.339 0 6.771 0 5.25A5.256 5.256 0 015.25 0c.98 0 2.021.367 2.931 1.034.532.39.985.86 1.319 1.359a5.522 5.522 0 011.319-1.359C11.729.367 12.77 0 13.75 0A5.256 5.256 0 0119 5.25c0 1.521-.499 3.089-1.482 4.66-.771 1.232-1.842 2.47-3.182 3.68-2.266 2.046-4.498 3.295-4.592 3.347a.5.5 0 01-.243.063H9.5z" fill="#fff"/></svg>