<svg width="85" height="86" fill="none" xmlns="http://www.w3.org/2000/svg"><path fill-rule="evenodd" clip-rule="evenodd" d="M47.603 73.398l-.41.398c-.945.009-1.89-.055-2.828-.192a16.03 16.03 0 01-2.919-.71l-2.481-.857a1.327 1.327 0 10-.864 2.51l2.481.857c1.106.382 2.245.66 3.403.828a21.12 21.12 0 003.464.217c.051.035.106.066.164.094l1.874.911c1.029.5 2.11.89 3.222 1.16 1.648.4 3.36.468 5.027.197l1.27-.205c2.606-.423 4.922-1.843 6.44-3.95l1.64-2.279a14.242 14.242 0 002.053-4.123l1.49-4.827a1.316 1.316 0 00-.602-1.517 1.373 1.373 0 00-1.462-.253l-10.106 4.297a29.414 29.414 0 00-4.241 2.226 40.93 40.93 0 00-6.615 5.218zm11.95-5.034l7.756-3.298-.74 2.4a11.672 11.672 0 01-1.683 3.38l-1.64 2.278a7.212 7.212 0 01-4.71 2.889l-1.27.205a9.952 9.952 0 01-3.94-.155 13.82 13.82 0 01-.896-.25 20.85 20.85 0 002.106-.587l3.218-1.081a1.33 1.33 0 00-.849-2.518l-3.217 1.08c-.628.211-1.266.388-1.912.529a38.404 38.404 0 013.92-2.848 26.74 26.74 0 013.857-2.024z" fill="#ef6f2e"/><path fill-rule="evenodd" clip-rule="evenodd" d="M41.716 33.533a126.318 126.318 0 016.695-14.9c.09-.035.178-.08.262-.134l3.953-2.57.635-.484c2.767-2.104 4.593-5.18 5.087-8.563.142-.976.207-1.96.193-2.945l-.036-2.62A1.307 1.307 0 0057.237.038a1.37 1.37 0 00-.997.14l-2.33 1.316a19.713 19.713 0 00-2.5 1.675c-2.731 2.15-4.505 5.251-4.941 8.64l-.1.777-.238 4.618a1.31 1.31 0 00-.001.071 129.328 129.328 0 00-3.018 6.058 21.469 21.469 0 00-2.924-6.926 1.273 1.273 0 00-.164-.616l-2.28-4.056-.44-.662c-1.905-2.859-4.867-4.886-8.277-5.663a20.334 20.334 0 00-3.019-.453l-2.673-.198c-.713-.053-1.344.449-1.445 1.132-.113.314-.106.669.05.992l1.133 2.362a19.16 19.16 0 001.501 2.586c1.952 2.828 4.95 4.808 8.375 5.53l.791.168 4.409.601a18.696 18.696 0 012.82 10.057h.002a128.436 128.436 0 00-2.578 6.708l-.028-.534a16.07 16.07 0 00-1.038-4.89c-1.543-4.037-4.333-7.517-7.983-9.957l-.433-.29a18.958 18.958 0 00-4.216-2.11l-5.67-2.005c-.7-.247-1.47.103-1.72.783-.143.391-.083.806.126 1.135l1.475 7.815 1.137 4.09a20.38 20.38 0 002.726 5.91c-7.28.72-13.315 1.833-17.264 3.227-2.119.748-3.812 1.634-4.73 2.738-.418.503-.723 1.11-.769 1.8H0v9.739h.018c.091.782.511 1.453 1.041 1.989.562.568 1.325 1.069 2.223 1.52.862 6.892 2.982 12.8 6.472 17.767 3.76 5.351 9.056 9.534 15.907 12.69l.264.122h33.866l.275-.134c6.584-3.197 12.051-7.196 15.874-12.334 3.711-4.99 5.82-10.984 5.953-18.201.744-.387 1.382-.807 1.881-1.27.606-.561 1.106-1.281 1.207-2.15h.018v-9.5a2.77 2.77 0 000-.141v-.098h-.004c-.089-1.448-1.317-2.514-2.597-3.25-1.57-.905-4.353-1.723-7.53-2.425-2.387-.529-5.09-1.012-7.85-1.42l3.417-2.887c1.148.442 2.403.686 3.718.686 5.501 0 9.96-4.262 9.96-9.519 0-5.256-4.459-9.518-9.96-9.518-5.501 0-9.96 4.262-9.96 9.518 0 .937.14 1.842.404 2.697l-11.096 9.227a15.8 15.8 0 00.467-.995l2.17-5.076 2.153-5.538a1.292 1.292 0 00-.781-1.685 1.378 1.378 0 00-1.35.236c-.045.023-.09.048-.133.076l-5.082 3.263-4.613 3.177a16.34 16.34 0 00-2.123 1.741l-1.082 1.052c-.509.495-.98 1.018-1.411 1.567zm9.363-19.735L48.92 15.2l.124-2.415.087-.68c.348-2.705 1.765-5.182 3.945-6.898a17.14 17.14 0 012.154-1.443l.62-.35.008.592a16.08 16.08 0 01-.166 2.536c-.394 2.7-1.852 5.153-4.06 6.833l-.554.422zM2.656 52.018c0 .007-.002.033.025.095.032.071.106.191.266.354.332.334.923.738 1.859 1.174.202.094.518.213.934.351h.01v.003c.394.13.877.279 1.44.44 1.133.325 2.508.682 3.947 1.034 2.325.57 4.79 1.121 6.639 1.5a18.098 18.098 0 01.055-4.705c.11-.767.297-1.516.556-2.238-2.909-.53-6.212-1.204-9.134-1.92-1.879-.46-3.624-.944-5.015-1.423a19.69 19.69 0 01-1.582-.613v5.948zm0-9.227v.001c0 .004.003.034.035.096.034.066.1.166.228.296.002.002.013.014.039.033.028.023.069.052.124.086.112.071.263.155.46.25.396.19.92.398 1.561.619.632.218 1.356.44 2.15.664 3.368-1.176 8.357-2.147 14.413-2.84a96.102 96.102 0 018.812-.627 16.716 16.716 0 01-5.748-4.043c-7.98.704-14.4 1.857-18.34 3.248-2.054.725-3.145 1.417-3.572 1.931a.865.865 0 00-.149.233.161.161 0 00-.013.05v.003zm19.623 1.925a11.783 11.783 0 00-2.648 2.835 175.61 175.61 0 01-7.105-1.411c2.63-.578 5.81-1.089 9.442-1.504.165-.02.328-.038.49-.055a8.65 8.65 0 00-.114.085l-.065.05zm5.462.34a23.556 23.556 0 014.386-1.065l.335-.006a21.366 21.366 0 00-4.586 3.063 17.11 17.11 0 00-4.433 6.053l-.126.289a1.3 1.3 0 00.717 1.717c.685.284 1.475-.026 1.764-.692l.126-.288a14.5 14.5 0 013.757-5.13 18.683 18.683 0 014.135-2.74l4.191-2.036a2.4 2.4 0 01.998 1.946v.06a3.17 3.17 0 01-.559 1.793c-.274.4-.65.723-1.09.937L35.002 50.1a18.97 18.97 0 00-3.648 2.32l-.305.247a20.51 20.51 0 00-4.282 4.747l-4.17 6.407-1.366-3.83a15.48 15.48 0 01-.742-7.395 8.947 8.947 0 013.43-5.82l.065-.05a6.821 6.821 0 011.915-1.032l1.842-.64zm-6.865 21.94c.032.088.072.171.12.248.097.26.279.49.536.648a1.369 1.369 0 001.855-.418l4.373-6.72c6.614.01 25.546.023 30.366-.34 5.068-.383 9.694-.948 13.61-1.668 2.923-.537 5.443-1.159 7.46-1.854-.318 6.16-2.225 11.237-5.388 15.489-3.44 4.625-8.42 8.345-14.63 11.397H26.51c-6.373-2.98-11.183-6.847-14.581-11.683-2.974-4.233-4.907-9.265-5.82-15.209l.35.102c1.178.338 2.59.704 4.047 1.061 2.842.697 5.902 1.368 7.839 1.74.105.37.223.735.352 1.097l2.18 6.11zm8.637-8.896c7.737.007 24.08-.008 28.413-.335 5-.377 9.528-.933 13.33-1.631 3.816-.702 6.76-1.522 8.71-2.39.978-.435 1.623-.845 2.003-1.197a1.6 1.6 0 00.33-.396.288.288 0 00.044-.124v-5.772a12.42 12.42 0 01-.523.28c-3.308 1.675-9.323 3.023-16.969 3.919-7.72.904-17.206 1.107-26.26.965l.002-.144-.064.031-2.354 1.144a16.235 16.235 0 00-3.122 1.986l-.305.247a17.855 17.855 0 00-3.235 3.417zm12.145-12.536l.398-.331c-.143.033-.287.065-.431.095.013.078.024.157.033.236zM25.076 27.81a61.536 61.536 0 018.43 11.85l-.77-.247a14.022 14.022 0 01-6.037-3.855 17.857 17.857 0 01-4.063-7.29l-1.107-3.984-1.114-5.902 3.378 1.194a16.214 16.214 0 013.605 1.805l.433.29c3.19 2.131 5.627 5.171 6.975 8.699.504 1.319.798 2.704.872 4.107l.21 3.992a64.207 64.207 0 00-8.808-12.388l-.149-.164a1.369 1.369 0 00-1.897-.123 1.289 1.289 0 00-.107 1.852l.149.164zm55.114-.162a6.576 6.576 0 001.267-3.858c0-3.677-3.155-6.861-7.304-6.861-.757 0-1.48.105-2.158.301l.136.579c1.018 4.316 4.001 7.928 8.06 9.839zm-2.06 1.902a7.577 7.577 0 01-3.977 1.102c-4.15 0-7.305-3.184-7.305-6.861 0-2.1 1.028-4.038 2.682-5.315 1.145 4.734 4.294 8.741 8.6 11.074zM41.107 42.76c3.504-.731 6.572-2.812 8.497-5.778l.813-1.253c.414-.636.771-1.306 1.068-2.001l2.153-5.036.67-1.723-1.85 1.188-4.578 3.152a13.65 13.65 0 00-1.773 1.455l-1.082 1.052c-2.455 2.386-3.853 5.598-3.918 8.944zm.816 6.04l23.862-19.843a9.74 9.74 0 002.168 2.286l-20.77 17.541c-1.746.022-3.505.026-5.26.016zm9.48-.102c4.672-.138 9.156-.415 13.139-.882 3.914-.458 7.296-1.027 10.046-1.668a174.467 174.467 0 00-6.313-.882 460.13 460.13 0 00-11.34-1.24l-5.531 4.672zm8.358-7.059c2.714.278 5.853.62 8.84.99 4.385.544 8.585 1.164 10.577 1.754l-.137.466a15.882 15.882 0 001.58-.683c.7-.355 1.157-.68 1.43-.951.274-.271.29-.413.291-.419a.104.104 0 00-.008-.046.762.762 0 00-.129-.215c-.177-.225-.524-.527-1.132-.877-1.176-.677-3.587-1.427-6.778-2.133-2.98-.66-6.494-1.252-10.003-1.712l-4.53 3.826zM25.511 8.117l-.28-.584.548.04c.88.065 1.754.196 2.613.392 2.741.625 5.122 2.255 6.653 4.554l.387.58 1.223 2.176-2.421-.33-.695-.147c-2.752-.58-5.16-2.172-6.73-4.444a16.537 16.537 0 01-1.298-2.237z" fill="#ef6f2e"/></svg>