<svg width="85" height="85" fill="none" xmlns="http://www.w3.org/2000/svg"><path fill-rule="evenodd" clip-rule="evenodd" d="M21.029 60.651H9.739l-4.87-9.74 4.87-9.74h11.068l4.427-8.853h12.839l4.628 8.854h10.867l5.09 9.74-5.09 9.739H42.47l-4.397 8.411H25.234l-4.205-8.411zm-13.19-9.74l3.542-7.083h9.588l3.651 6.984-2.287 4.573-1.364 2.61h-9.588L7.84 50.91zm28.625 15.495l3.65-6.984-2.285-4.57-1.365-2.612h-9.489l-2.277 4.355-1.364 2.728 3.542 7.083h9.588zm15.495-8.411h-9.49l-2.278-4.359-1.362-2.725 3.542-7.083h9.588l3.703 7.083-3.703 7.084zM26.876 34.974l-3.542 7.083 3.542 7.084h9.588l3.703-7.084-3.703-7.083h-9.588z" fill="#665a55"/><path fill-rule="evenodd" clip-rule="evenodd" d="M6.64 0a3.984 3.984 0 00-3.984 3.984v7.97c0 2.2 1.784 3.983 3.985 3.983h1.328v1.932c-4.393.807-7.754 4.56-7.96 9.136H0v49.597C0 81.252 3.77 85 8.411 85h49.76a6.96 6.96 0 006.304-4.009c.873.584 1.88.91 3.038.91 2.346 0 4.214-1.287 5.602-3.464 1.054-1.652 1.88-3.879 2.512-6.636 2.79 1.769 5.642 2.177 7.452.778 2.785-2.154 2.044-7.78-1.656-12.563-2.532-3.273-5.793-5.305-8.493-5.571a5.5 5.5 0 00.56-2.427c0-.78-.162-1.524-.454-2.198a8.305 8.305 0 012.056-3.315c1.006-1.006 2.275-1.801 3.711-2.31l-.887-2.504c-1.79.634-3.403 1.636-4.702 2.935a11.185 11.185 0 00-2.082 2.86 5.509 5.509 0 00-3.176-1.002c-.703 0-1.374.131-1.993.37V27.005h-.002c-.107-4.706-3.63-8.569-8.188-9.205v-1.863h1.107c2.2 0 3.985-1.783 3.985-3.984V3.984C62.865 1.784 61.08 0 58.88 0H6.64zm0 2.656h3.985V7.97H5.312V3.984c0-.733.595-1.328 1.329-1.328zm61.527 54.892l.05-.002c-.01.034-.019.068-.027.103l-.011-.05-.012-.05zm-5.745-5.53c0 .814.175 1.586.49 2.282-2.597.446-5.623 2.426-8.005 5.505-2.851 3.687-3.946 7.873-3.022 10.586H2.656V29.219l52.24.015v-2.657l-52.185-.015a7.085 7.085 0 017.029-6.197h.885v-4.427h44.492v4.427h1.328a6.863 6.863 0 016.83 6.198h-5.28v2.656h5.312v16.066a11.581 11.581 0 00-.61-.658c-1.299-1.3-2.911-2.302-4.701-2.936l-.888 2.503c1.437.51 2.705 1.305 3.712 2.31.966.968 1.664 2.103 2.056 3.316a5.517 5.517 0 00-.454 2.198zm-59.766-22.8V27.36v1.859zm0 43.829v3.555a5.743 5.743 0 005.755 5.742h49.76c2.09 0 3.868-1.5 4.235-3.54a10.897 10.897 0 01-.307-.505c-.911-1.595-1.621-3.7-2.2-6.237-1.891 1.018-3.761 1.392-5.268.985H2.656zm63.106-6.506a15.047 15.047 0 014.743.117c-1.247-1.892-2.045-3.859-2.36-5.65-.344 1.764-1.149 3.686-2.383 5.533zm7.49 3.678c-3.664-1.48-7.235-1.617-10.7.041-.04.02-.082.037-.123.052l-.162.137c.25 1.22.52 2.308.81 3.27 3.095-.918 6.218-.855 9.293-.058.324-1.002.619-2.147.881-3.442zm-8.847 6.762a10.842 10.842 0 01-.396-.766c2.41-.68 4.866-.662 7.357-.067-.16.311-.323.598-.49.86-1.047 1.642-2.167 2.237-3.363 2.237-1.138 0-2.148-.585-3.108-2.264zm-1.511-10.998c-1.106 1.43-2.336 2.538-3.521 3.305l-.03.005.002.013a9.535 9.535 0 01-1.563.822c-1.688.685-2.572.397-2.905.14-.334-.259-.835-1.042-.596-2.848.228-1.73 1.113-3.902 2.727-5.99 1.615-2.087 3.494-3.49 5.112-4.145 1.688-.685 2.572-.397 2.906-.14.333.258.834 1.042.596 2.848-.229 1.73-1.114 3.902-2.728 5.99zM52.24 2.656h-5.756V7.97h5.756V2.656zm2.656 5.313h5.312V3.984c0-.733-.594-1.328-1.328-1.328h-3.984V7.97zM38.073 2.656h5.755V7.97h-5.755V2.656zm-2.656 0h-5.313V7.97h5.313V2.656zm-13.724 0h5.755V7.97h-5.755V2.656zm-2.657 0h-5.755V7.97h5.755V2.656zM5.313 10.625v1.328c0 .734.595 1.328 1.329 1.328h52.24c.733 0 1.327-.594 1.327-1.328v-1.328H5.313zm76.142 59.853c-.334.258-1.218.546-2.906-.139-1.618-.656-3.497-2.058-5.112-4.146-1.614-2.087-2.5-4.258-2.728-5.989-.238-1.806.263-2.59.596-2.848.334-.257 1.218-.545 2.906.14 1.618.655 3.497 2.058 5.112 4.145 1.614 2.088 2.5 4.26 2.727 5.99.238 1.806-.262 2.59-.596 2.847zM67.956 54.896a2.878 2.878 0 100-5.755 2.878 2.878 0 000 5.755z" fill="#665a55"/></svg>