<svg width="247" height="159" fill="none" xmlns="http://www.w3.org/2000/svg"><path fill-rule="evenodd" clip-rule="evenodd" d="M0 12C0 5.373 5.373 0 12 0h175c6.627 0 12 5.373 12 12v35.136l-12.898-7.097V25c0-6.627-5.373-12-12-12H25.82c-6.628 0-12 5.373-12 12v61c0 6.627 5.372 12 12 12h92.397c.369.297.766.564 1.19.797L176.114 130H113v15h26c7.732 0 14 6.268 14 14H46c0-7.732 6.268-14 14-14h25v-15H12c-6.627 0-12-5.373-12-12V12zm152.978 14.465a8 8 0 00-10.877 3.113l-4.154 7.484L242.015 94.01l3.808-6.86a8 8 0 00-3.112-10.878l-89.733-49.807zm83.213 78.038L132.123 47.555 113.286 81.49a8 8 0 003.113 10.877l89.732 49.807a8 8 0 0010.877-3.113l19.183-34.559zm-97.912-36.205l43.4 23.185-2.827 5.292-43.4-23.185 2.827-5.292zm-34.607-28.78L72.126 75.902l-6.17-5.35-.002.002L49 55.732l5.946-6.8 16.733 14.627L97.308 34l6.364 5.518z" fill="#3d5050"/></svg>