<svg xmlns="http://www.w3.org/2000/svg" width="30" height="30" viewBox="0 0 152.781 152.782"><path d="M76.401 13.77c20.4 0 22.814.078 30.869.445 7.448.34 11.493 1.584 14.185 2.63a25.293 25.293 0 0114.5 14.5c1.046 2.691 2.291 6.736 2.631 14.183.367 8.054.445 10.47.445 30.865s-.078 22.81-.445 30.865c-.34 7.447-1.585 11.491-2.631 14.183a25.3 25.3 0 01-14.5 14.5c-2.692 1.046-6.737 2.291-14.185 2.63-8.054.368-10.47.446-30.869.446s-22.815-.078-30.869-.446c-7.448-.339-11.493-1.584-14.185-2.63a25.293 25.293 0 01-14.5-14.5c-1.046-2.692-2.291-6.736-2.63-14.183-.367-8.055-.445-10.47-.445-30.865s.078-22.811.445-30.865c.34-7.447 1.584-11.492 2.63-14.183a25.3 25.3 0 0114.5-14.5c2.692-1.046 6.737-2.29 14.185-2.63 8.056-.367 10.472-.445 30.869-.445m0-13.763c-20.747 0-23.348.088-31.5.459-8.131.371-13.684 1.662-18.544 3.551A39.06 39.06 0 004.019 26.356C2.13 31.215.839 36.767.468 44.897c-.372 8.147-.46 10.748-.46 31.492s.088 23.345.46 31.492c.371 8.13 1.662 13.683 3.551 18.541a39.06 39.06 0 0022.342 22.339c4.859 1.888 10.412 3.18 18.544 3.551 8.148.371 10.749.459 31.5.459s23.349-.088 31.5-.459 13.685-1.663 18.544-3.551a39.058 39.058 0 0022.342-22.339c1.888-4.858 3.18-10.411 3.551-18.541.372-8.147.459-10.748.459-31.492s-.087-23.345-.459-31.492c-.371-8.13-1.663-13.682-3.551-18.541a39.058 39.058 0 00-22.342-22.339C121.59 2.129 116.037.837 107.905.466S97.156.007 76.405.007zm0 37.159a39.223 39.223 0 1039.229 39.228 39.226 39.226 0 00-39.229-39.228zm0 64.684a25.461 25.461 0 1125.464-25.456 25.462 25.462 0 01-25.464 25.456zm49.949-66.233a9.168 9.168 0 11-9.168-9.166 9.167 9.167 0 019.168 9.166z" fill="#fff" fill-rule="evenodd"/></svg>