<svg xmlns="http://www.w3.org/2000/svg" width="30" height="30" viewBox="0 0 146.781 162.563"><path fill="fff" class="cls-1" d="M130.635 15.069c-5.989-5.115-13.013-8.2-20.554-10.176A147.308 147.308 0 0052.52 1.336C42.682 2.67 33.178 5.27 24.435 10.175 14.167 15.935 7.106 24.231 3.977 35.743A117.381 117.381 0 00.246 60.768C-.378 73.253.028 85.656 3.224 97.837c3.7 14.094 11.739 24.476 25.517 30 1.5.6 2.915 1.431 4.412 2.054a2.733 2.733 0 011.792 2.98c-.067 9.748-.035 19.5-.035 29.68 3.619-3.492 6.117-6.061 7.935-8.115 5.426-6.133 10.56-11.237 16.218-17.069 2.868-2.957 1.663-2.813 6.112-2.74 5.235.086 13.458.291 18.66-.116 9.927-.777 19.771-2.04 29.348-4.916 12.163-3.652 21.908-10.164 26.852-22.462a73.038 73.038 0 003.4-9.967c4.751-19.572 4.115-39.18.145-58.76-1.841-9.093-5.731-17.176-12.945-23.337zM70.179 26.936c.1-1.886 1.182-2.612 2.957-2.527 15.1.721 26.477 5.21 35.221 16.981 5.125 6.9 7.891 16.21 8.169 24.863 0 1.285.057 2.573-.015 3.853-.079 1.431-.7 2.524-2.314 2.541-1.626.017-2.423-.863-2.533-2.513a58.5 58.5 0 00-4.094-18.514c-4.718-11.485-13.765-17.675-25.392-20.663a55.7 55.7 0 00-9.36-1.7c-1.434-.114-2.744-.419-2.639-2.321zm15.239 16.039a50.25 50.25 0 00-9.411-2.407c-1.564-.227-2.68-1.055-2.391-2.884a2.489 2.489 0 013.05-2.247c10.541 1 18.776 4.836 24.446 13.968a28.118 28.118 0 013.976 14.855c-.166 3.215-.656 4.045-2.495 4-2.676-.073-2.281-2.274-2.486-3.892a50.536 50.536 0 00-1.533-7.333 19.727 19.727 0 00-13.156-14.06zm8.923 17.776a19.244 19.244 0 01-.249 2.094 2.218 2.218 0 01-2.282 1.905 2.281 2.281 0 01-2.334-1.864 23.08 23.08 0 01-.449-2.388 9.718 9.718 0 00-7.471-8.163c-.519-.14-1.057-.214-1.576-.357-1.332-.369-2.991-.4-3.046-2.347-.046-1.614 1.181-2.575 3.4-2.711a12.607 12.607 0 015.188 1.308c5.545 2.704 8.136 6.51 8.819 12.523zm22.193 44.759a22.287 22.287 0 01-14.946 12.985 10.868 10.868 0 01-7.325-.887C62.306 104.005 39.206 81.559 26.127 49.16a17.37 17.37 0 01-1.407-7c.017-8.344 7.338-16.058 15.362-16.5a7.519 7.519 0 015.737 2.129 60.818 60.818 0 0113.492 18.39c1.8 3.786 1.045 6.454-2.192 9.166-.518.434-1.079.816-1.625 1.216-4.3 3.144-5.259 6.356-3.2 11.31a41.032 41.032 0 0016.262 19.221 34.832 34.832 0 008.871 4.411 6.357 6.357 0 007.209-2.39c.213-.263.41-.539.608-.813 4.121-5.7 8.532-6.693 14.505-2.987a119.556 119.556 0 0114.531 10.712c3.103 2.647 3.896 5.766 2.254 9.485z"/></svg>