<svg width="71" height="85" fill="none" xmlns="http://www.w3.org/2000/svg"><path d="M51.234 12.76a2.12 2.12 0 00-1.348-3.314l-2.308-.42a7.049 7.049 0 01-5.789-6.936v-.75a1.339 1.339 0 012.678 0v.751a4.372 4.372 0 003.59 4.302l2.308.42a4.797 4.797 0 013.051 7.5l-.358.504c-.711 1-1.767 1.7-2.964 1.966l-.114.025c-.452.1-.914.151-1.377.151H39.41l-.412.047a7.473 7.473 0 00-4.696 2.413l-.006-.006a1.339 1.339 0 11-1.86-1.92 10.15 10.15 0 016.258-3.147l.564-.065h9.344c.268 0 .535-.029.796-.087l.114-.025a2.28 2.28 0 001.363-.904l.358-.504zM59.64 1.549a1.339 1.339 0 10-2.678 0v4.016a1.339 1.339 0 102.678 0V1.549zM20.498 43.2a1.339 1.339 0 00-2.662.29l.98 9.008a1.339 1.339 0 102.662-.29l-.98-9.008zm-.138 11.756a1.339 1.339 0 011.476 1.187l.145 1.33a1.339 1.339 0 01-2.663.29l-.144-1.332a1.339 1.339 0 011.187-1.475z" fill="#458500"/><path fill-rule="evenodd" clip-rule="evenodd" d="M59.884 14.904a7.18 7.18 0 01-7.18 7.18h-8.547a3.986 3.986 0 00-3.98 3.766c10.136.79 17.678 3.796 17.678 7.383 0 .105-.006.21-.02.313l-1.103 15.228-1.398 9.613a23.404 23.404 0 015.077-1.447l.778-.13a1.339 1.339 0 011.553 1.196c.078.196.11.413.086.638l-.555 5.134c-.036.325-.08.648-.132.968 2.288.59 4.223 1.143 5.632 1.789 1.53.7 3.023 1.783 3.023 3.67 0 .24-.054.454-.13.634l.004.002c-2.392 5.11-6.676 9.129-13.68 11.496-6.889 2.328-12.128 2.7-19.718 2.66-7.618-.04-15.034-1.09-21.047-3.722-3.084-1.35-5.562-3.318-7.386-5.255-1.808-1.921-3.035-3.88-3.558-5.277l.006-.003a1.62 1.62 0 01-.091-.535c0-1.11.867-1.829 1.465-2.223.698-.459 1.642-.874 2.73-1.258 1.685-.595 3.89-1.175 6.46-1.731-.163-.63-.32-1.26-.473-1.89l-1.504-.43a24.168 24.168 0 01-7.422-3.583l-.275-.197a13.836 13.836 0 01-4.152-4.73l-.272-.509a13.774 13.774 0 01-1.566-5.206l-.142-1.51a10.35 10.35 0 011.54-6.474 7.55 7.55 0 0110.378-2.396c-.054-1.574-.077-3.15-.071-4.728a2.71 2.71 0 01-.002-.107c0-3.763 8.301-6.886 19.189-7.483v-2.78a1.339 1.339 0 112.678 0v2.686a69.932 69.932 0 013.747.04 6.663 6.663 0 016.653-6.29h8.547a4.503 4.503 0 004.503-4.502V10.58a1.339 1.339 0 112.677 0v4.323zm.748 60.956a56.671 56.671 0 004.541-1.58c-2.139 2.292-5.066 4.177-9.04 5.52-6.489 2.194-11.394 2.56-18.847 2.52-7.425-.04-14.437-1.068-19.987-3.498-2.627-1.15-4.774-2.825-6.383-4.504a56.987 56.987 0 004.444 1.543c5.8 1.763 13.796 3.338 22.636 3.338s16.837-1.575 22.636-3.338zM12.118 41.357l-1.493-.966a4.872 4.872 0 00-6.772 1.499 7.672 7.672 0 00-1.142 4.798l.142 1.511a11.097 11.097 0 001.262 4.194l.271.508a11.16 11.16 0 003.349 3.816l.276.197a21.491 21.491 0 006.599 3.185l.087.025a124.507 124.507 0 01-2.58-18.767zm31.75 34.93a20.726 20.726 0 0116.149-16.548l-.406 3.751a15.376 15.376 0 01-7.615 11.671l.024.042c-.7.13-1.413.254-2.142.37l4.602-7.19a1.339 1.339 0 10-2.256-1.444l-5.697 8.902a1.347 1.347 0 00-.105.2c-.837.095-1.689.177-2.553.246zM59.853 73.3c-.67.203-1.37.404-2.099.6a18.062 18.062 0 003.76-6.549c2.268.586 3.972 1.082 5.143 1.619.844.386 1.202.695 1.353.917-.331.242-.867.56-1.617.93-1.512.746-3.744 1.633-6.54 2.483zM33.121 62.747a21.197 21.197 0 006.558 13.754c-.557.013-1.118.02-1.683.02-6.013 0-11.627-.756-16.374-1.796l-.526-1.542a121.826 121.826 0 01-6.491-36.37c3.874 2.385 11.497 4.007 20.267 4.007 8.596 0 16.09-1.558 20.032-3.865l-.835 11.53-1.651 11.35a23.409 23.409 0 00-3.403 2.428 18.333 18.333 0 00-14.514-7.133h-.467c-.715 0-1.3.562-1.337 1.268-.033.136-.046.28-.035.426l.459 5.924zm2.305-4.912l.364 4.706a18.52 18.52 0 005.712 12 23.329 23.329 0 011.988-5.315l-4.357-4.668a1.339 1.339 0 011.957-1.827l3.831 4.104a23.456 23.456 0 012.152-2.7 15.656 15.656 0 00-11.647-6.3zM16.55 67.581a124.46 124.46 0 001.989 6.399 68.08 68.08 0 01-2.4-.681c-2.796-.85-5.028-1.737-6.54-2.483a14.318 14.318 0 01-1.287-.708c.436-.256 1.086-.547 1.97-.859 1.57-.554 3.703-1.115 6.268-1.668zm14.529-39.15v3.017a1.339 1.339 0 102.678 0v-3.114a68.667 68.667 0 013.736.041v6.026a1.339 1.339 0 102.678 0v-5.866c3.956.322 7.434.992 10.113 1.877 1.925.635 3.29 1.333 4.117 1.98.592.46.737.75.77.841-.033.092-.178.381-.77.843-.827.645-2.192 1.344-4.117 1.98-3.822 1.26-9.27 2.086-15.412 2.086-6.14 0-11.59-.825-15.412-2.087-1.925-.635-3.29-1.334-4.117-1.98-.591-.461-.736-.75-.77-.842.034-.091.179-.38.77-.842.828-.646 2.192-1.344 4.117-1.98 3.014-.994 7.04-1.718 11.619-1.98zm37.2 41.23l-.006.006c.015-.02.02-.023.005-.006zm-60.56.006l-.005-.006a.143.143 0 01.005.006z" fill="#458500"/></svg>