<svg width="230" height="188" fill="none" xmlns="http://www.w3.org/2000/svg"><path d="M188 108.109l-8.501-7.085a41.14 41.14 0 01-6.276-6.525l-1.814-2.359a30.83 30.83 0 00-24.435-12.031h-3.041a47.794 47.794 0 00-20.779 4.753l-6.678 3.224a80.205 80.205 0 01-26.25 7.512l-4.726.51H64.014a6.021 6.021 0 00-5.573 8.302l1.044 2.552a12.701 12.701 0 008.999 7.588l6.054 1.345c.64.142 1.292.214 1.947.214h49.58a1.505 1.505 0 01.016 3.01l-35.227.382H75.5l-6.769-.949a15.967 15.967 0 01-12.611-9.888l-2.62-6.555L7.57 78.434A5.191 5.191 0 000 83.048v1.398a7.66 7.66 0 002.851 5.962L31 113.11l19.354 11.892 12.765 5.605a109.42 109.42 0 0015.899 5.563l1.275.339a163.025 163.025 0 0027.537 4.831l2.651.233c3.244.286 6.505.326 9.754.121l7.626-.481A45.091 45.091 0 01159 151.109l29-43z" fill="#000"/><path fill-rule="evenodd" clip-rule="evenodd" d="M95.854 39.001c-10.494 0-19-8.506-19-19 0-10.493 8.506-19 19-19 10.493 0 19 8.507 19 19 0 10.494-8.507 19-19 19zm0-11a8 8 0 110-16 8 8 0 010 16zm-45 60c-10.494 0-19-8.506-19-19 0-10.493 8.506-19 19-19 10.493 0 19 8.507 19 19 0 10.494-8.507 19-19 19zm0-11a8 8 0 110-16 8 8 0 010 16zm102.631 88.994l45.006-66.994 31.363 21.069-45.006 66.994-31.363-21.069zm21.869 10.006a7.5 7.5 0 110-15 7.5 7.5 0 010 15zM97.46 88.585a7 7 0 002.695-9.526L57.964 3.586a7 7 0 10-12.22 6.83l42.19 75.474a7 7 0 009.526 2.695z" fill="#000"/></svg>